Coordinates
version=1
nRows=35
nColumns=18
inDegrees=yes

Units are S.I. units (second, meters, Newtons, ...)
If the header above contains a line with 'inDegrees', this indicates whether rotational values are in degrees (yes) or radians (no).

endheader
time	ground_thorax_rot_x	ground_thorax_rot_y	ground_thorax_rot_z	ground_thorax_tx	ground_thorax_ty	ground_thorax_tz	clav_prot	clav_elev	scapula_abduction	scapula_elevation	scapula_upward_rot	scapula_winging	plane_elv	shoulder_elv	axial_rot	elbow_flexion	pro_sup
      2.00000000	      0.51728761	    -15.26080528	      4.23339623	     -0.06845142	      0.05060264	      0.01166085	    -24.10484907	      0.17412768	      9.34162441	     -8.32889859	     58.56939816	      6.11987148	    -26.00000000	     52.70426892	     25.92471689	     21.22347648	   -178.39951169
      2.02000000	      0.51728761	    -15.15164995	      4.08704491	     -0.06789384	      0.05029205	      0.01190927	    -24.05901343	     -0.04306079	      9.07405766	     -8.45899776	     58.17468340	      6.20056832	    -26.00000000	     52.78023678	     26.05590077	     21.74161123	   -178.51647073
      2.04000000	      0.51728761	    -15.01783847	      3.93072054	     -0.06731094	      0.04994770	      0.01214826	    -24.00436685	     -0.29116679	      8.76538836	     -8.60609372	     57.71518842	      6.29581045	    -26.00000000	     52.86181963	     26.15264828	     22.29480628	   -178.60388844
      2.06000000	      0.51728761	    -14.85155601	      3.76287226	     -0.06670610	      0.04956906	      0.01238040	    -23.94175747	     -0.57080070	      8.40906561	     -8.76991422	     57.18524325	      6.40726744	    -26.00000000	     52.95638991	     26.18147033	     22.88704857	   -178.63349733
      2.08000000	      0.51728761	    -14.65245091	      3.58680664	     -0.06610171	      0.04916430	      0.01261717	    -23.87070572	     -0.87897755	      8.00475920	     -8.94777675	     56.58356624	      6.53537071	    -26.00000000	     53.05496081	     26.11219938	     23.50957114	   -178.57405252
      2.10000000	      0.51728761	    -14.39009062	      3.41873218	     -0.06555271	      0.04876347	      0.01285749	    -23.79477694	     -1.17378060	      7.48354372	     -9.10977272	     55.85723867	      6.66977042	    -26.00000000	     53.12793668	     25.34782113	     24.22495065	   -177.85024403
      2.12000000	      0.51728761	    -14.12515018	      3.25332972	     -0.06498331	      0.04830956	      0.01316570	    -23.74983724	     -1.48225146	      6.93076207	     -9.27973442	     55.15001144	      6.81574122	    -26.00000000	     53.08477469	     24.81247872	     24.88920482	   -176.72509226
      2.14000000	      0.51728761	    -13.83758353	      3.08782599	     -0.06445645	      0.04782960	      0.01347220	    -23.68791621	     -1.81669525	      6.35552452	     -9.45973775	     54.37900341	      6.98027405	    -26.00000000	     53.03483164	     24.24550754	     25.53880689	   -175.67655477
      2.16000000	      0.51728761	    -13.53183256	      2.92553233	     -0.06395533	      0.04733091	      0.01380288	    -23.62427780	     -2.16550290	      5.74436280	     -9.64299519	     53.56101465	      7.16026304	    -26.00000000	     52.93636014	     23.61124384	     26.17013493	   -174.47803720
      2.18000000	      0.51728761	    -13.20939172	      2.76814900	     -0.06348887	      0.04681215	      0.01415461	    -23.56076850	     -2.52474973	      5.10187719	     -9.82687774	     52.70438432	      7.35474277	    -26.00000000	     52.78041711	     22.94097496	     26.76157066	   -173.15853424
      2.20000000	      0.51728761	    -12.87676088	      2.61457341	     -0.06305068	      0.04627552	      0.01452930	    -23.49885581	     -2.89334247	      4.43308804	    -10.01068849	     51.81658500	      7.56357109	    -26.00000000	     52.56074057	     22.25500321	     27.30867932	   -171.76252579
      2.22000000	      0.51728761	    -12.53600727	      2.46425525	     -0.06263867	      0.04572293	      0.01492320	    -23.44308321	     -3.26978940	      3.73899113	    -10.19390264	     50.90696465	      7.78626598	    -26.00000000	     52.26911741	     21.56898358	     27.79968103	   -170.31549344
      2.24000000	      0.51728761	    -12.18804406	      2.31347484	     -0.06225121	      0.04517413	      0.01533567	    -23.39609417	     -3.65804373	      3.01849531	    -10.37915898	     49.97783412	      8.02480532	    -26.00000000	     51.90750713	     20.90893850	     28.23432362	   -168.89504180
      2.26000000	      0.51728761	    -11.83784663	      2.16781469	     -0.06189132	      0.04461298	      0.01576738	    -23.36288357	     -4.04052815	      2.27237503	    -10.55608330	     49.04369250	      8.27137015	    -26.00000000	     51.45228715	     20.30866270	     28.60065065	   -167.37062711
      2.28000000	      0.51728761	    -11.76984917	      2.05253574	     -0.06150520	      0.04388115	      0.01625661	    -23.17702506	     -4.34639523	      1.90928112	    -10.68102534	     48.23223003	      8.46946204	    -26.00000000	     50.86834646	     20.28783520	     28.64747779	   -167.26601467
      2.30000000	      0.51728761	    -11.15870583	      1.87534624	     -0.06117507	      0.04344889	      0.01668989	    -23.32082969	     -4.77931111	      0.73564463	    -10.87846734	     47.16367125	      8.78245617	    -26.00000000	     50.29001951	     19.35528697	     29.15053472	   -164.14631436
      2.32000000	      0.51728761	    -10.82540573	      1.71406593	     -0.06077662	      0.04289340	      0.01711605	    -23.28428969	     -5.19157570	     -0.03868802	    -11.05458291	     46.16561485	      9.07449201	    -26.00000000	     49.73204302	     19.06328507	     29.40701168	   -163.59330182
      2.34000000	      0.51728761	    -10.83300269	      1.60353124	     -0.06036170	      0.04220004	      0.01768505	    -23.07926865	     -5.47676962	     -0.41013905	    -11.14663807	     45.29843736	      9.28966607	    -26.00000000	     48.94226535	     19.04763851	     29.36531599	   -163.51015432
      2.36000000	      0.51728761	    -10.15307337	      1.39645819	     -0.05998851	      0.04166568	      0.01821492	    -23.38340124	     -5.79183237	     -1.78871742	    -11.26809575	     44.33233111	      9.57928108	    -26.00000000	     47.98902660	     18.33237010	     29.76386948	   -160.46845677
      2.38000000	      0.51728761	     -9.82767282	      1.22286040	     -0.05956221	      0.04111619	      0.01874259	    -23.42288865	     -6.13407385	     -2.66619139	    -11.39079804	     43.37121427	      9.86558991	    -26.00000000	     47.13245056	     18.19779897	     29.90961507	   -159.53981957
      2.40000000	      0.51728761	     -9.88292200	      1.05811254	     -0.05903136	      0.04040698	      0.01935859	    -23.19255421	     -6.39360201	     -3.03856697	    -11.44443886	     42.44402060	     10.09528405	    -26.00000000	     46.25116510	     18.25118902	     29.85477796	   -159.54438528
      2.42000000	      0.51728761	     -9.19056500	      0.85179737	     -0.05863156	      0.03996268	      0.01987427	    -23.53784665	     -6.75178046	     -4.48102502	    -11.57981798	     41.45359007	     10.43169330	    -26.00000000	     45.27595188	     18.21144955	     30.18128048	   -158.16341644
      2.44000000	      0.51728761	     -8.91390264	      0.68973339	     -0.05817005	      0.03937895	      0.02040801	    -23.50989740	     -7.04426756	     -5.32259836	    -11.63866114	     40.39164698	     10.72674625	    -26.00000000	     44.43868544	     18.39458916	     30.32865404	   -158.10990530
      2.46000000	      0.51728761	     -8.55559117	      0.44384808	     -0.05759680	      0.03878244	      0.02109870	    -23.70818417	     -7.31013070	     -6.36968050	    -11.71577206	     39.55446642	     10.99742166	    -26.00000000	     43.30337596	     18.67125203	     30.46790226	   -157.85903498
      2.48000000	      0.51728761	     -8.60861064	      0.23260233	     -0.05698523	      0.03803966	      0.02179435	    -23.48122653	     -7.52582972	     -6.79196750	    -11.71307998	     38.56621170	     11.24234526	    -26.00000000	     42.36580719	     18.82169976	     30.45713953	   -157.89003733
      2.50000000	      0.51728761	     -7.94365626	      0.02649221	     -0.05654208	      0.03756392	      0.02237385	    -23.85925300	     -7.83740242	     -8.24357113	    -11.80591469	     37.61310701	     11.57709509	    -26.00000000	     41.32815333	     19.53003770	     30.71893656	   -157.88644608
      2.52000000	      0.51728761	     -8.02917051	     -0.19787431	     -0.05591849	      0.03680115	      0.02312137	    -23.61371314	     -8.03048752	     -8.62265818	    -11.77759098	     36.62785136	     11.82120790	    -26.00000000	     40.37002510	     19.70069610	     30.69272533	   -157.94630110
      2.54000000	      0.51728761	     -7.33742107	     -0.36529162	     -0.05556339	      0.03631094	      0.02363116	    -23.96485690	     -8.32955845	    -10.06803215	    -11.84250896	     35.61401595	     12.16907572	    -26.00000000	     39.42629016	     20.71391597	     30.91543119	   -158.23375136
      2.56000000	      0.51728761	     -7.06175675	     -0.59089739	     -0.05506373	      0.03563461	      0.02427962	    -24.04861242	     -8.55977434	    -10.93065031	    -11.86272822	     34.72725853	     12.44636348	    -26.00000000	     38.40453279	     21.51280910	     30.92543329	   -159.03910689
      2.58000000	      0.51728761	     -6.77737950	     -0.77126105	     -0.05464580	      0.03496717	      0.02487149	    -24.06203099	     -8.78439476	    -11.76473330	    -11.85207045	     33.72198262	     12.74278185	    -26.00000000	     37.49286946	     22.21701294	     30.94361750	   -159.27961462
      2.60000000	      0.51728761	     -6.83453552	     -1.00583703	     -0.05409878	      0.03416165	      0.02558274	    -23.82474581	     -8.95757716	    -12.11373901	    -11.79622070	     32.76309086	     12.99285415	    -26.00000000	     36.54585421	     22.44286607	     30.85822115	   -159.38123455
      2.62000000	      0.51728761	     -6.25306557	     -1.17757104	     -0.05385421	      0.03361026	      0.02602264	    -24.14323692	     -9.22637903	    -13.31758902	    -11.85415497	     31.93555419	     13.30488551	    -26.00000000	     35.52896827	     23.92480894	     30.72610734	   -160.59164192
      2.64000000	      0.51728761	     -6.30159138	     -1.41103312	     -0.05332881	      0.03276925	      0.02664605	    -23.88714162	     -9.38493043	    -13.61843197	    -11.78029792	     30.98290063	     13.55302369	    -26.00000000	     34.62070274	     24.12336791	     30.61156318	   -160.67372453
      2.66000000	      0.51728761	     -5.74836728	     -1.51312313	     -0.05325600	      0.03222336	      0.02697441	    -24.09730928	     -9.62640530	    -14.70492958	    -11.78930533	     30.05742287	     13.87105399	    -26.00000000	     33.70354831	     25.48072737	     30.39412512	   -161.13588300
      2.68000000	      0.51728761	     -5.53329846	     -1.69502851	     -0.05295729	      0.03151553	      0.02740529	    -24.08078521	     -9.79899932	    -15.31208341	    -11.75400178	     29.23308753	     14.12263522	    -26.00000000	     32.71021199	     26.32942026	     30.08403671	   -161.60279893
